<svg xmlns="http://www.w3.org/2000/svg" viewBox="0 0 128 128" role="img" aria-labelledby="title desc">
  <title id="title">AirDrop Media logo</title>
  <desc id="desc">A dopamine-color comic sticker icon with AirDrop rings and a send arrow.</desc>
  <defs>
    <linearGradient id="bg" x1="16" y1="10" x2="116" y2="118" gradientUnits="userSpaceOnUse">
      <stop offset="0" stop-color="#FFF23A"/>
      <stop offset="0.38" stop-color="#FF4FD8"/>
      <stop offset="0.72" stop-color="#42F5D7"/>
      <stop offset="1" stop-color="#7C4DFF"/>
    </linearGradient>
    <filter id="pop" x="-18%" y="-18%" width="136%" height="136%">
      <feDropShadow dx="0" dy="6" stdDeviation="3" flood-color="#111827" flood-opacity="0.28"/>
    </filter>
  </defs>
  <rect x="5" y="5" width="118" height="118" rx="29" fill="#111827"/>
  <rect x="11" y="9" width="106" height="106" rx="25" fill="url(#bg)"/>
  <path d="M22 29c9-13 26-18 41-13 9 3 15 9 22 15 7 7 15 11 26 9" fill="none" stroke="#FFFFFF" stroke-width="7" stroke-linecap="round" opacity="0.55"/>
  <path d="M17 100c18-6 28-3 42 4 16 8 34 4 47-12" fill="none" stroke="#00E5FF" stroke-width="7" stroke-linecap="round" opacity="0.65"/>
  <circle cx="29" cy="30" r="5" fill="#FFFFFF"/>
  <circle cx="99" cy="93" r="4.5" fill="#FFF23A" stroke="#111827" stroke-width="3"/>
  <g filter="url(#pop)" stroke-linecap="round" stroke-linejoin="round">
    <circle cx="54" cy="72" r="8" fill="#FFFFFF" stroke="#111827" stroke-width="6"/>
    <path d="M36 79.5a23 23 0 0 1 0-15" fill="none" stroke="#111827" stroke-width="14"/>
    <path d="M36 79.5a23 23 0 0 1 0-15" fill="none" stroke="#FFFFFF" stroke-width="8"/>
    <path d="M22 88a40 40 0 0 1 0-32" fill="none" stroke="#111827" stroke-width="14"/>
    <path d="M22 88a40 40 0 0 1 0-32" fill="none" stroke="#FFF23A" stroke-width="8"/>
    <path d="M72 79.5a23 23 0 0 0 0-15" fill="none" stroke="#111827" stroke-width="14"/>
    <path d="M72 79.5a23 23 0 0 0 0-15" fill="none" stroke="#FFFFFF" stroke-width="8"/>
    <path d="M86 88a40 40 0 0 0 0-32" fill="none" stroke="#111827" stroke-width="14"/>
    <path d="M86 88a40 40 0 0 0 0-32" fill="none" stroke="#00E5FF" stroke-width="8"/>
    <path d="M75 32h28v28" fill="none" stroke="#111827" stroke-width="16"/>
    <path d="M75 32h28v28" fill="none" stroke="#FFFFFF" stroke-width="9"/>
    <path d="M101 34 67 68" fill="none" stroke="#111827" stroke-width="16"/>
    <path d="M101 34 67 68" fill="none" stroke="#FFFFFF" stroke-width="9"/>
  </g>
  <path d="M87 26c5 1 9 5 10 10" fill="none" stroke="#FFF23A" stroke-width="5" stroke-linecap="round"/>
</svg>
